{"title":"Linkin Park &amp; Steve Aoki - A Light That Never Comes [Music V","uid":9156918,"size":78609392,"categoryP":"video","categoryS":"music_videos","magnet":"?xt=urn:btih:d45dd7f79be2d38287b196c6eb536cd6c142bc92&amp;dn=Linkin+Park+%26amp%3B+Steve+Aoki+-+A+Light+That+Never+Comes+%5BMusic+V&amp;tr=udp%3A%2F%2Ftracker.openbittorrent.com%3A80&amp;tr=udp%3A%2F%2Fopen.demonii.com%3A1337&amp;tr=udp%3A%2F%2Ftracker.coppersurfer.tk%3A6969&amp;tr=udp%3A%2F%2Fexodus.desync.com%3A6969","seeders":1,"leechers":0,"uploader":"Sbyky","files":1,"time":1383792464,"description":"[IMG]http://cdn.piczend.com/images/7v3kDx9C/1383618676_alightthatnevercomes.jpg[/IMG]\n\nGeneral\nComplete name                            : Linkin Park &amp; Steve Aoki - A Light That Never Comes [Music Video] 720p [Sbyky].MP4\nFormat                                   : MPEG-4\nFormat profile                           : Base Media / Version 2\nCodec ID                                 : mp42\nFile size                                : 75.0 MiB\nDuration                                 : 4mn 39s\nOverall bit rate mode                    : Variable\nOverall bit rate                         : 2 254 Kbps\nEncoded date                             : UTC 2013-10-17 05:38:28\nTagged date                              : UTC 2013-10-17 05:38:28\n\nVideo\nID                                       : 1\nFormat                                   : AVC\nFormat/Info                              : Advanced Video Codec\nFormat profile                           : &lt;a class=&quot;__cf_email__&quot; href=&quot;/cdn-cgi/l/email-protection&quot; data-cfemail=&quot;2469454d4a6468170a15&quot;&gt;[email&amp;#160;protected]&lt;/a&gt;&lt;script cf-hash='f9e31' type=&quot;text/javascript&quot;&gt;\n/* &lt;![CDATA[ */!function(){try{var t=&quot;currentScript&quot;in document?document.currentScript:function(){for(var t=document.getElementsByTagName(&quot;script&quot;),e=t.length;e--;)if(t[e].getAttribute(&quot;cf-hash&quot;))return t[e]}();if(t&amp;&amp;t.previousSibling){var e,r,n,i,c=t.previousSibling,a=c.getAttribute(&quot;data-cfemail&quot;);if(a){for(e=&quot;&quot;,r=parseInt(a.substr(0,2),16),n=2;a.length-n;n+=2)i=parseInt(a.substr(n,2),16)^r,e+=String.fromCharCode(i);e=document.createTextNode(e),c.parentNode.replaceChild(e,c)}}}catch(u){}}();/* ]]&gt; */&lt;/script&gt;\nFormat settings, CABAC                   : Yes\nFormat settings, ReFrames                : 3 frames\nCodec ID                                 : avc1\nCodec ID/Info                            : Advanced Video Coding\nDuration                                 : 4mn 38s\nSource duration                          : 4mn 38s\nBit rate                                 : 1 999 Kbps\nWidth                                    : 1 280 pixels\nHeight                                   : 720 pixels\nDisplay aspect ratio                     : 16:9\nFrame rate mode                          : Constant\nFrame rate                               : 23.976 fps\nColor space                              : YUV\nChroma subsampling                       : 4:2:0\nBit depth                                : 8 bits\nScan type                                : Progressive\nBits/(Pixel*Frame)                       : 0.090\nStream size                              : 66.5 MiB (89%)\nSource stream size                       : 66.5 MiB (89%)\nEncoded date                             : UTC 2013-10-17 05:38:28\nTagged date                              : UTC 2013-10-17 05:38:28\n\nAudio\nID                                       : 2\nFormat                                   : AAC\nFormat/Info                              : Advanced Audio Codec\nFormat profile                           : LC\nCodec ID                                 : 40\nDuration                                 : 4mn 39s\nBit rate mode                            : Variable\nBit rate                                 : 254 Kbps\nChannel(s)                               : 2 channels\nChannel positions                        : Front: L R\nSampling rate                            : 44.1 KHz\nCompression mode                         : Lossy\nStream size                              : 8.44 MiB (11%)\nEncoded date                             : UTC 2013-10-17 05:37:51\nTagged date                              : UTC 2013-10-17 05:37:51\n\nShared By Sbyky\n[IMG]http://cdn.piczend.com/images/X3Ag13N3/1379453786_saythanks.gif[/IMG]\n[IMG]http://cdn.piczend.com/images/gGqhX2S8/1379453780_keepseeding.gif[/IMG]","torrent":{"xt":"urn:btih:d45dd7f79be2d38287b196c6eb536cd6c142bc92","amp;dn":"Linkin+Park+%26amp%3B+Steve+Aoki+-+A+Light+That+Never+Comes+%5BMusic+V","amp;tr":["udp%3A%2F%2Ftracker.openbittorrent.com%3A80","udp%3A%2F%2Fopen.demonii.com%3A1337","udp%3A%2F%2Ftracker.coppersurfer.tk%3A6969","udp%3A%2F%2Fexodus.desync.com%3A6969"],"infoHash":"d45dd7f79be2d38287b196c6eb536cd6c142bc92","infoHashBuffer":{"type":"Buffer","data":[212,93,215,247,155,226,211,130,135,177,150,198,235,83,108,214,193,66,188,146]},"announce":[],"urlList":[]}}